<svg xmlns="http://www.w3.org/2000/svg" viewBox="0 0 24 24" fill="#AA336A">
  <path d="M12,2A10,10 0 0,0 2,12A10,10 0 0,0 12,22A10,10 0 0,0 22,12A10,10 0 0,0 12,2M15.2,15.8C15.2,16.5 14.6,17.1 14,17.1C13.4,17.1 12.8,16.5 12.8,15.8C12.8,15.1 13.4,14.5 14,14.5C14.6,14.5 15.2,15.1 15.2,15.8M10.2,15.8C10.2,16.5 9.6,17.1 9,17.1C8.4,17.1 7.8,16.5 7.8,15.8C7.8,15.1 8.4,14.5 9,14.5C9.6,14.5 10.2,15.1 10.2,15.8M15.5,12.5C15.5,13.2 14.9,13.8 14.2,13.8C13.5,13.8 12.9,13.2 12.9,12.5C12.9,11.8 13.5,11.2 14.2,11.2C14.9,11.2 15.5,11.8 15.5,12.5M9.9,12.5C9.9,13.2 9.3,13.8 8.6,13.8C7.9,13.8 7.3,13.2 7.3,12.5C7.3,11.8 7.9,11.2 8.6,11.2C9.3,11.2 9.9,11.8 9.9,12.5M12,9.8C13.3,9.8 14.3,8.8 14.3,7.5C14.3,6.2 13.3,5.2 12,5.2C10.7,5.2 9.7,6.2 9.7,7.5C9.7,8.8 10.7,9.8 12,9.8Z" />
</svg>